<?xml version="1.0" encoding="utf-8"?>
<!-- Generator: Adobe Illustrator 20.1.0, SVG Export Plug-In . SVG Version: 6.00 Build 0)  -->
<svg version="1.1" id="Layer_1" xmlns="http://www.w3.org/2000/svg" xmlns:xlink="http://www.w3.org/1999/xlink" x="0px" y="0px"
	 viewBox="0 0 200 180" style="enable-background:new 0 0 200 180;" xml:space="preserve">
<style type="text/css">
	.st0{fill:#034EA1;}
	.st1{fill:#2F8EC2;}
	.st2{fill:#929497;}
</style>
<g>
	<polygon class="st0" points="37.6,101.8 42.2,101.8 42.2,126.4 48.9,126.4 48.9,131.9 37.6,131.9 	"/>
	<path class="st0" d="M62.1,101.8h4.7l9.4,30.1h-4.8l-1.9-6.2h-9.9l-2,6.2h-4.8L62.1,101.8z M64.4,109.8l-3.2,10.3h6.5L64.4,109.8z"
		/>
	<path class="st0" d="M79.6,101.8h5.2c2.8,0,4.8,0.3,6.1,0.9c1.3,0.6,2.2,1.6,3,2.9c0.7,1.4,1.1,3,1.1,4.9c0,2.1-0.5,3.8-1.4,5.2
		c-0.9,1.4-2.2,2.4-3.8,2.9c-0.9,0.3-2.7,0.5-5.2,0.5v12.7h-4.9V101.8z M84.5,113.6h1.5c1.3,0,2.1-0.1,2.6-0.3
		c0.5-0.2,0.8-0.5,1.1-1c0.3-0.5,0.4-1,0.4-1.7c0-1.2-0.4-2-1.2-2.5c-0.6-0.4-1.6-0.6-3.1-0.6h-1.4V113.6z"/>
	<polygon class="st0" points="98.1,101.8 112.8,101.8 112.8,107.5 108,107.5 108,131.9 102.8,131.9 102.8,107.5 98.1,107.5 	"/>
	<polygon class="st0" points="116.4,101.8 129.9,101.8 129.9,107.4 121.1,107.4 121.1,112.8 129.9,112.8 129.9,118.4 121.1,118.4 
		121.1,126.3 129.9,126.3 129.9,131.9 116.4,131.9 	"/>
	<polygon class="st0" points="136.5,101.8 141.1,101.8 146.8,122.8 152.6,101.8 157.2,101.8 161.3,131.9 156.8,131.9 154.1,112.9 
		148.9,131.9 144.8,131.9 139.6,112.9 136.9,131.9 132.3,131.9 	"/>
	<path class="st1" d="M23.1,35.7h48c0,0,16-1.8,30,20c0.2,0.2-23.9,28.1-23.9,28.1s-11.9,2.8-22.9-11.1L23.1,35.7z"/>
	<path class="st1" d="M17.1,35.6h3.4l36.2,42.1c0,0,6.1,7.6,17.8,7.4c0,0-10.3,3.7-19.3-4.7L17.1,35.6z"/>
	<path class="st1" d="M49.8,77.2L19.6,40.8c-5-5.7-8-5.2-8-5.2s-5.4,0-5.4,0c-0.5,0,0.1,0.2,0.1,0.2c6.6,1.6,11,6.3,11,6.3
		s32.5,39.6,32.5,39.4c8.5,8,19.4,5.9,19.3,5.8C55.5,85.9,49.8,77.2,49.8,77.2"/>
	<path class="st0" d="M192.3,38.6L192.3,38.6c-6.6,0-54.9,0.1-54.9,0c-11.1-0.4-18,8-18,8S86,85.1,86,85c0,0-2.2,2.4-2.2,2.4
		c-0.1,0.1-0.1,0.3,0.4,0.3h4.6c7.2,0,50.5,0,51,0c12.2-0.2,22-11.6,22-11.6s8.3-9.8,10.2-12.1c1.7-2.7,14.3-17.4,17.6-21.2l0,0
		c0.4-0.4,2.1-2.5,3-3.5C193.3,38.5,192.3,38.6,192.3,38.6"/>
	<polygon class="st2" points="38.1,138.3 43,138.3 43,139.7 39.8,139.7 39.8,140.6 42.7,140.6 42.7,141.9 39.8,141.9 39.8,142.9 
		43,142.9 43,144.3 38.1,144.3 	"/>
	<polygon class="st2" points="44.1,138.3 45.7,138.3 48.2,141.5 48.2,138.3 49.9,138.3 49.9,144.3 48.4,144.3 45.8,141 45.8,144.3 
		44.1,144.3 	"/>
	<path class="st2" d="M51,141.3L51,141.3c0-1.8,1.4-3.2,3.3-3.2c1.1,0,1.8,0.3,2.5,0.9l-1,1.2c-0.4-0.4-0.9-0.6-1.5-0.6
		c-0.9,0-1.6,0.7-1.6,1.7v0c0,1,0.7,1.7,1.6,1.7c0.4,0,0.7-0.1,1-0.3V142h-1.2v-1.2h2.8v2.7c-0.6,0.5-1.5,0.9-2.6,0.9
		C52.4,144.5,51,143.2,51,141.3"/>
	<rect x="58.2" y="138.3" class="st2" width="1.7" height="6.1"/>
	<polygon class="st2" points="61.2,138.3 62.8,138.3 65.3,141.5 65.3,138.3 67,138.3 67,144.3 65.5,144.3 62.9,141 62.9,144.3 
		61.2,144.3 	"/>
	<polygon class="st2" points="68.3,138.3 73.2,138.3 73.2,139.7 70,139.7 70,140.6 72.9,140.6 72.9,141.9 70,141.9 70,142.9 
		73.2,142.9 73.2,144.3 68.3,144.3 	"/>
	<polygon class="st2" points="74.3,138.3 79.2,138.3 79.2,139.7 76,139.7 76,140.6 78.9,140.6 78.9,141.9 76,141.9 76,142.9 
		79.3,142.9 79.3,144.3 74.3,144.3 	"/>
	<path class="st2" d="M80.4,138.3h2.9c0.9,0,1.6,0.2,2,0.7c0.4,0.3,0.5,0.8,0.5,1.4v0c0,0.9-0.5,1.5-1.2,1.9l1.4,2.1H84l-1.2-1.8h0
		h-0.7v1.8h-1.7V138.3z M83.2,141.2c0.6,0,0.9-0.3,0.9-0.7v0c0-0.5-0.3-0.7-0.9-0.7h-1.1v1.5H83.2z"/>
	<rect x="86.9" y="138.3" class="st2" width="1.7" height="6.1"/>
	<polygon class="st2" points="90,138.3 91.5,138.3 94,141.5 94,138.3 95.7,138.3 95.7,144.3 94.2,144.3 91.6,141 91.6,144.3 
		90,144.3 	"/>
	<path class="st2" d="M96.8,141.3L96.8,141.3c0-1.8,1.4-3.2,3.3-3.2c1.1,0,1.8,0.3,2.5,0.9l-1,1.2c-0.4-0.4-0.9-0.6-1.5-0.6
		c-0.9,0-1.6,0.7-1.6,1.7v0c0,1,0.7,1.7,1.6,1.7c0.4,0,0.7-0.1,1-0.3V142H100v-1.2h2.8v2.7c-0.6,0.5-1.5,0.9-2.6,0.9
		C98.2,144.5,96.8,143.2,96.8,141.3"/>
	<path class="st2" d="M106.2,143.4l0.9-1.1c0.6,0.5,1.3,0.7,2,0.7c0.5,0,0.7-0.2,0.7-0.4v0c0-0.3-0.2-0.4-1-0.6
		c-1.3-0.3-2.3-0.7-2.3-1.9v0c0-1.1,0.9-1.9,2.3-1.9c1,0,1.8,0.3,2.5,0.8l-0.8,1.2c-0.6-0.4-1.2-0.6-1.7-0.6c-0.4,0-0.6,0.2-0.6,0.4
		v0c0,0.3,0.2,0.4,1,0.6c1.4,0.3,2.3,0.8,2.3,1.9v0c0,1.2-1,2-2.5,2C107.9,144.4,106.9,144.1,106.2,143.4"/>
	<path class="st2" d="M112.3,141.3L112.3,141.3c0-1.8,1.4-3.2,3.3-3.2c1.9,0,3.3,1.4,3.3,3.1v0c0,1.7-1.4,3.2-3.3,3.2
		C113.7,144.5,112.3,143.1,112.3,141.3 M117.2,141.3L117.2,141.3c0-0.9-0.6-1.7-1.6-1.7c-0.9,0-1.5,0.7-1.5,1.6v0
		c0,0.9,0.6,1.6,1.6,1.6C116.5,142.9,117.2,142.2,117.2,141.3"/>
	<polygon class="st2" points="120,138.3 121.7,138.3 121.7,142.9 124.6,142.9 124.6,144.3 120,144.3 	"/>
	<path class="st2" d="M125.4,141.7v-3.4h1.7v3.4c0,0.9,0.4,1.3,1.1,1.3c0.7,0,1.1-0.4,1.1-1.2v-3.4h1.7v3.4c0,2-1.1,2.8-2.8,2.8
		C126.4,144.5,125.4,143.6,125.4,141.7"/>
	<polygon class="st2" points="133.8,139.7 131.9,139.7 131.9,138.3 137.3,138.3 137.3,139.7 135.4,139.7 135.4,144.3 133.8,144.3 	
		"/>
	<rect x="138.3" y="138.3" class="st2" width="1.7" height="6.1"/>
	<path class="st2" d="M141.1,141.3L141.1,141.3c0-1.8,1.4-3.2,3.3-3.2c1.9,0,3.3,1.4,3.3,3.1v0c0,1.7-1.4,3.2-3.3,3.2
		C142.5,144.5,141.1,143.1,141.1,141.3 M146,141.3L146,141.3c0-0.9-0.6-1.7-1.6-1.7c-0.9,0-1.5,0.7-1.5,1.6v0c0,0.9,0.6,1.6,1.6,1.6
		C145.3,142.9,146,142.2,146,141.3"/>
	<polygon class="st2" points="148.8,138.3 150.4,138.3 152.9,141.5 152.9,138.3 154.5,138.3 154.5,144.3 153.1,144.3 150.5,141 
		150.5,144.3 148.8,144.3 	"/>
	<path class="st2" d="M155.4,143.4l0.9-1.1c0.6,0.5,1.3,0.7,2,0.7c0.5,0,0.7-0.2,0.7-0.4v0c0-0.3-0.2-0.4-1-0.6
		c-1.3-0.3-2.3-0.7-2.3-1.9v0c0-1.1,0.9-1.9,2.3-1.9c1,0,1.8,0.3,2.5,0.8l-0.8,1.2c-0.6-0.4-1.2-0.6-1.7-0.6c-0.4,0-0.6,0.2-0.6,0.4
		v0c0,0.3,0.2,0.4,1,0.6c1.4,0.3,2.3,0.8,2.3,1.9v0c0,1.2-1,2-2.5,2C157.2,144.4,156.2,144.1,155.4,143.4"/>
</g>
</svg>
